<?xml version="1.0" encoding="UTF-8"?>
<svg id="Layer_1" data-name="Layer 1" xmlns="http://www.w3.org/2000/svg" viewBox="0 0 595.28 595.28">
  <defs>
    <style>
      .cls-1 {
        fill: #2c5b13;
      }
    </style>
  </defs>
  <g>
    <path class="cls-1" d="M517.48,462.14c-6.54-.02-13.08-.05-19.62-.05-10.03,0-20.06-.02-30.08.02-1.13,0-1.82-.29-2.49-1.25-15-21.32-30.05-42.6-45.06-63.92-.75-1.06-1.52-1.52-2.87-1.51-9.01.08-18.02.06-27.03.08-.58,0-.7,0-1.38,0-.04.59-.11,1.04-.11,1.5,0,12.59-.07,25.18.08,37.77.04,2.91.57,5.9,1.4,8.71,2.29,7.79,7.88,12.05,15.69,13.38,3.57.61,7.23.66,11.01.98v3.29h-147.33v-2.7c.55,0,1.11.01,1.67,0,4.49-.1,8.99-.14,13.48-.36,1.52-.07,3.07-.48,4.51-.99,4.09-1.43,6.28-4.94,5.09-9.09-1.34-4.69-3.17-9.27-5.05-13.78-1.92-4.63-4.14-9.15-6.27-13.69-2.17-4.64-4.41-9.25-6.57-13.89-.4-.86-.88-1.24-1.84-1.05-13.78,2.78-27.47,5.89-40.16,12.24-2.62,1.31-5.08,2.96-7.52,4.59-6.38,4.25-8.82,10.51-8.72,17.91.13,9.13,7.49,16.97,16.6,17.83.95.09,1.9.24,2.63.38v3.95h-54.92v-3.56c1.57-.28,3.18-.52,4.77-.84,6.92-1.41,12.32-5.4,17.04-10.41,4.27-4.54,7.8-9.7,10.41-15.33,3.86-8.32,10.28-13.69,18.25-17.63,10.23-5.06,21.08-8.21,32.11-10.82,2.77-.66,5.56-1.24,8.54-1.9-1.01-2.27-1.94-4.35-2.86-6.42-5.14-11.5-10.32-22.98-15.38-34.51-1.4-3.18-2.45-6.52-3.57-9.82-.19-.55-.15-1.43.08-1.95,3.57-8.23,7.2-16.43,10.78-24.65.56-1.3,1.61-.69,2.46-.8.85-.1,1.56-.05,2.03,1.01,2.87,6.43,5.84,12.82,8.77,19.23,7.89,17.22,15.8,34.44,23.62,51.7.68,1.51,1.43,1.89,2.97,1.7,6.34-.78,12.68-1.53,19.03-2.15,5.67-.56,11.35-1,17.04-1.37,6.49-.41,12.98-.7,19.47-1,.97-.04,1.28-.39,1.27-1.34-.04-13.61.14-27.22-.17-40.82-.14-6.29-2.2-12.12-7.49-16.19-3.95-3.04-8.58-4.16-13.43-4.46-2.32-.14-4.66-.02-7.07-.02v-4.06c.61-.03,1.19-.08,1.76-.08,36.2,0,72.4-.11,108.59.06,11.02.05,22.05.75,32.69,4.09,8.64,2.72,15.91,7.39,20.74,15.26,8.54,13.89,5.19,29.07-8.32,38.35-5.76,3.95-12.31,5.86-18.95,7.58-11.52,2.99-23.27,4.07-35.14,3.97-2.94-.02-5.87,0-8.81,0-.05.17-.1.35-.14.52.43.32.85.67,1.3.96,12.03,7.91,24.86,13.98,39.03,17,.75.16,1.53.92,2,1.6,6.19,8.93,12.27,17.93,18.51,26.82,2.03,2.88,4.47,5.47,6.72,8.19,3.49,4.21,8.09,6.54,13.39,7.22,4.26.55,8.61.48,12.91.7l-.12,3.85ZM388.89,391.72c.57.05.94.1,1.31.1,12.64.05,25.28.09,37.93.12,6.76.02,13.46-.58,19.95-2.61,7.87-2.47,14.08-6.95,17.28-14.83,2.54-6.25,2.84-12.79,2.03-19.41-1.05-8.57-4.98-15.39-12.56-19.81-6.68-3.9-14.07-5.41-21.66-5.53-14.3-.22-28.6-.09-42.91-.1-.46,0-.91.08-1.38.12v61.95ZM303.16,401.22c.2.58.29.99.46,1.36,6.11,13.29,12.2,26.59,18.36,39.86,2.02,4.34,4.53,8.38,8.33,11.45,3.12,2.53,6.68,4.28,10.69,4.13,4.03-.15,7.85-1.52,11.18-3.95,5.71-4.19,7.86-10.26,8.01-16.92.28-13.17.11-26.34.12-39.51,0-.3-.07-.61-.12-1.09-19.07.96-38.01,2.34-57.02,4.67Z"/>
    <path class="cls-1" d="M124.56,465.16h-2.12c-1.46-.12-2.93-.28-4.39-.39-10.38-.76-20.12-3.39-28.44-9.95-5.2-4.1-8.89-9.24-10.76-15.5-3.69-12.38,5.76-25.11,18.63-24.11,15.12,1.17,18.48,18,12.32,26.34-2.38,3.22-5.67,5.13-9.31,6.54-1.05.41-2.13.78-3.12,1.32-1.81.98-1.96,3-.44,4.38,1.97,1.79,4.17,3.44,6.53,4.62,6.32,3.15,13.19,3.37,20.06,2.84,4.34-.33,8.51-1.47,12.32-3.69,6.7-3.9,10.4-9.84,11.55-17.39.43-2.79.57-5.64.57-8.46.04-25.43.06-50.86-.02-76.29-.01-3.29-.29-6.65-1.02-9.85-2.04-9.02-8.57-14.82-17.82-15.68-5.26-.49-10.58-.3-15.87-.45-.55-.02-1.51-.16-1.56-.38-.17-.92-.1-1.89-.04-2.84,0-.13.41-.3.65-.33.42-.06.85-.03,1.28-.03,29.82,0,59.64,0,89.46,0,2.04,0,2.79,1.02,2.07,2.97-.12.32-.8.57-1.24.6-2.93.17-5.89.11-8.8.43-9.95,1.1-16.83,7.83-18.21,17.76-.34,2.48-.55,5-.55,7.5-.04,21.47-.04,42.94-.02,64.4,0,6.14-.67,12.14-2.85,17.93-3.4,9.01-9.8,15.3-18.05,19.86-7.38,4.08-15.36,6.33-23.74,7.16-2.37.23-4.73.46-7.1.69Z"/>
  </g>
  <g>
    <path class="cls-1" d="M254.7,295.1l-3.32-.05c-.92-.24-1.83-.5-2.75-.7-10.48-2.37-17.3-11.25-17.14-21.98.15-9.41,7.05-18.91,18.17-20.85,4.71-.82,9.29-.13,13.51,2.17,1.37.75,2.22.52,3.39-.38,7.35-5.59,15.64-8.98,24.84-9.84,11.82-1.12,22.59,2.12,32.18,8.93,2.8,1.99,4.69,2.41,8.04.83,13.09-6.15,28.14,2.46,30.29,16.76,1.81,12.01-7.1,23.35-18.68,24.67-.41.05-.8.27-1.19.41h-3.54c-.39-.14-.78-.36-1.18-.42-15.84-2.1-24.05-20.36-15.12-33.68.55-.83,1.16-1.62,1.89-2.63-8.87-4.9-17.88-8.91-28.02-8.97-9.74-.05-18.31,3.87-26.61,8.86.55.76.96,1.37,1.4,1.96,2.42,3.2,3.73,6.85,4.16,10.78,1.17,10.68-6.34,21.02-16.85,23.34-1.15.25-2.3.53-3.46.8Z"/>
    <path class="cls-1" d="M296.81,216.01c-19.59-24.48-19.69-58.32-.78-85.44,7.18,9.77,11.94,20.44,13.73,32.39,3.32,22.1-5.6,42.9-12.95,53.04Z"/>
    <path class="cls-1" d="M192.46,234.03c24.21-19.35,58.08-20.05,85.61-.91-10.92,7.97-22.91,13.04-36.39,14.13-17.87,1.44-34.04-3.62-49.22-13.22Z"/>
    <path class="cls-1" d="M312.19,233.91c12.95-9.63,27.04-15.02,43.03-14.82,15.61.19,29.66,5.2,42.8,13.93-12.45,9.13-25.99,14.28-41.13,14.49-16.19.22-30.94-4.67-44.7-13.6Z"/>
  </g>
</svg>