<?xml version="1.0" encoding="UTF-8"?>
<svg id="Layer_1" data-name="Layer 1" xmlns="http://www.w3.org/2000/svg" viewBox="0 0 1000 1000">
  <defs>
    <style>
      .cls-1 {
        fill: #006fbd;
      }
    </style>
  </defs>
  <path class="cls-1" d="M532.89,502.13c20.85,0,41.71.27,62.55-.1,13.95-.25,28.53,9.5,29.99,26.93,1.42,16.86-11.48,30.09-26.23,31.23-1.78.14-3.58.14-5.37.14-41.19,0-82.38.17-123.57-.08-14.48-.09-28.45-3.28-41.27-10.32-16.79-9.23-27.4-23.3-31-42.11-3.27-17.08-3.53-34.38-.03-51.47,4.83-23.58,19.42-38.91,41.8-46.97,10.65-3.83,21.71-5.64,33.1-5.59,25.71.11,51.42.04,77.13.02,2.04,0,4.11-.03,6.11-.37,5.65-.94,8.51-3.78,9.71-9.4.24-1.12.37-2.28.37-3.42,0-14.2.25-28.4-.17-42.59-.44-14.66,9.44-25.98,20.8-29.36,17.01-5.05,34.47,5.62,37.38,23.17.47,2.86.23,5.83.32,8.75.07,2.29.19,4.59.2,6.88.02,10.11.41,20.23-.08,30.31-.79,16.27-4.09,31.94-13.27,45.84-9.86,14.92-23.78,23.71-41.29,26.67-6.14,1.04-12.45,1.52-18.69,1.56-27.5.16-55,.05-82.51.11-2.39,0-4.91.24-7.14,1.01-3.74,1.29-6.34,3.95-6.51,8.16-.28,6.76-.63,13.53-.49,20.29.12,5.93,4.31,9.87,10.6,10.66,1.52.19,3.06.14,4.6.14,20.98,0,41.96,0,62.94,0,0-.04,0-.07,0-.11Z"/>
  <path class="cls-1" d="M266.51,402.44c15.22,0,30.44-.31,45.65.07,30.26.75,52.83,18.09,61.59,46.93,3.02,9.95,4.57,20.16,4.58,30.59.02,16.62.06,33.25.08,49.87.02,14.76-11.1,27.79-25.1,29.44-16.03,1.89-29.77-7.64-33.09-23.08-.45-2.1-.52-4.31-.53-6.47-.01-17.78.06-35.55.03-53.33,0-2.41-.22-4.86-.71-7.22-.94-4.44-3.84-7.14-8.25-8.06-1.99-.41-4.05-.59-6.09-.59-27.24-.04-54.48-.03-81.72,0-1.65,0-3.33.13-4.95.41-6.13,1.04-9.43,4.69-9.92,10.88-.11,1.4-.06,2.81-.06,4.22,0,18.03.05,36.06-.04,54.1-.07,13.6-9.05,25.28-22,28.46-21.08,5.17-37.05-11.46-36.78-28.36.31-19.56.04-39.13.32-58.69.08-5.58.74-11.25,1.89-16.72,5.12-24.38,20.34-39.78,43.54-47.64,9.97-3.38,20.3-5.03,30.89-4.95,13.56.1,27.11.03,40.67.03,0,.05,0,.09,0,.14Z"/>
  <path class="cls-1" d="M760.32,402.45c15.22,0,30.45-.44,45.65.09,33.1,1.16,53.34,20.41,61.42,47.12,3.01,9.96,4.52,20.17,4.52,30.6,0,16.5.04,32.99.08,49.49.04,14.97-11.22,28.05-25.33,29.63-18.73,2.09-30.53-10.84-32.83-22.95-.43-2.24-.55-4.57-.56-6.85-.02-17.9.06-35.81.03-53.71,0-2.28-.23-4.61-.75-6.83-.99-4.25-3.81-6.89-8.05-7.81-1.98-.43-4.05-.62-6.08-.62-27.37-.04-54.74-.03-82.1-.01-1.4,0-2.82.08-4.2.3-6.86,1.07-10.44,4.97-10.46,11.98-.07,18.54-.36,37.1.21,55.62.5,16.14-10.79,27.76-22.87,30.47-16.11,3.61-32.43-6.94-35.28-23.2-.42-2.38-.64-4.82-.65-7.23-.06-19.06-.13-38.11,0-57.17.06-8.47,1.33-16.81,4.14-24.85,7.03-20.09,21.41-32.57,41.18-39.24,9.98-3.36,20.29-5.07,30.88-4.99,13.68.09,27.37.02,41.05.02,0,.05,0,.1,0,.15Z"/>
  <path class="cls-1" d="M234.61,517.06c-.62-14.24,11.47-29.22,29.08-29.31,16.28-.08,29.58,13.21,29.48,29.42-.1,16.1-13.27,29.17-29.4,29.12-17.64-.05-29.73-15.03-29.15-29.23Z"/>
  <path class="cls-1" d="M262.41,593.34c-5.11,0-10.23-.14-15.34.04-4.77.17-7.95-1.74-10.15-6-1.72-3.34-3.32-6.54-3.25-10.44.09-5.22,2.66-9.26,5.84-12.98,1.55-1.81,3.84-2.51,6.23-2.51,11.12-.02,22.25-.13,33.37.04,6.16.09,12.61,6.7,13.39,13.32.94,7.93-2.14,12.69-8.85,17.34-1.34.93-3.39,1.09-5.12,1.14-5.37.14-10.74.05-16.11.05h0Z"/>
  <path class="cls-1" d="M476.44,664.27v-26.39c-2.05.23-2.23,1.71-2.75,2.74-2.99,5.92-5.96,11.86-8.81,17.86-.9,1.89-2.15,2.6-4.19,2.58-1.93-.03-2.99-.84-3.81-2.54-2.81-5.87-5.73-11.69-8.63-17.52-.54-1.09-1.18-2.14-2.14-3.87-1.4,3.55-.71,6.45-.83,9.25-.13,2.93-.03,5.88-.03,8.81v8.78c-2.89,1.2-5.5.81-8.07.44-.9-2.78-1.21-36.7-.37-42.84,3.64-.74,7.45-.47,11.19-.16.87.07,1.86,1.58,2.37,2.63,2.85,5.85,5.56,11.77,8.35,17.66.52,1.1,1.17,2.14,2.16,3.94,1.03-1.85,1.74-2.98,2.3-4.18,2.74-5.77,5.51-11.52,8.11-17.35.96-2.15,2.27-3.12,4.67-2.97,2.89.17,5.8.04,8.55.04.99,3.47,1.14,38.87.28,43-2.51.91-5.11.64-8.37.08Z"/>
  <path class="cls-1" d="M544.38,664.71v-43.46c2.64,0,5.07-.28,7.38.12,1.16.2,2.32,1.45,3.13,2.5,5.72,7.37,11.35,14.83,17.02,22.24.8,1.05,1.73,2,3.05,2.83.62-9.15.43-18.14.57-27.43h8.11c.94,3.09,1.1,38.5.2,42.67-2.5,1.01-5.21.69-7.79.32-1.03-.15-2.06-1.4-2.8-2.36-5.47-7.09-10.86-14.23-16.29-21.35-.83-1.09-1.74-2.12-2.69-3.28-1.58,1.26-1.18,2.76-1.19,4.06-.05,5.88-.02,11.77-.03,17.65,0,.9-.03,1.79-.03,2.69.02,1.87-.8,2.87-2.76,2.82-1.77-.04-3.55,0-5.88,0Z"/>
  <path class="cls-1" d="M496.59,664.18v-42.21c.4-.27.6-.53.81-.54,7.51-.24,15.06-.97,22.49.6,9.79,2.06,15.63,9.27,15.89,19.3.05,1.78.08,3.59-.2,5.35-1.63,10.4-8.09,16.81-18.58,17.72-6.21.54-12.5.21-18.75.24-.47,0-.95-.26-1.66-.47ZM505.84,629.11c-.31.58-.53.81-.53,1.03-.06,8.18-.1,16.36-.14,24.54,0,1.61.9,2.38,2.37,2.37,2.42,0,4.85-.06,7.26-.27,9-.8,12.78-7.74,11.86-16.01-.41-3.69-1.7-7.04-4.89-9.18-4.98-3.33-10.49-3.33-15.93-2.49Z"/>
</svg>